<svg version="1.2" xmlns="http://www.w3.org/2000/svg" viewBox="655.7047596388924 -307.20745537919595 610.6012902189556 160.81287452467973" width="612" height="162"><style>.a{fill:#d1d5db}.b{fill:#019f39}</style><path fill="#ffffff" d="m737.3-288.2v-19h-81.6v19h29.8v68.6h22v-68.6zm158.3 39.1c-3.9 6.5-10.8 11.4-21.7 11.4-15.7 0-26.3-10.2-26.3-26 0-15 10.6-25.4 26.3-25.4 13.1 0 18.8 8.6 21.7 11.8l19-5c-6.9-16-22.2-24.9-40.7-24.9-27.7 0-47.1 18.5-47.1 43.8 0 25.3 19.4 43.9 47.1 43.9 19.9 0 33.8-10 40.7-24.6zm109.2 29.4v-87.3h-20.8v33.7h-35.9v-33.7h-20v87.3h20v-34.3h35.9v34.3zm12.7 0.1h63.6v-19.1h-41.7v-68.3h-21.9zm158.4-87.5h-20.6v47.6c0 15.3-6.9 21.9-20.5 21.9-13.5 0-19.9-6.6-19.9-21.9v-47.6h-21.6v45.8c0 29.1 16.3 41.8 41 41.8 25.6 0 41.6-12.7 41.6-41.8zm66.7 87.5h22.1l-21-34c9.4-3.3 16.9-11.4 16.9-24.3 0-17.8-13.6-29.3-37.2-29.3h-34.5v87.6h20.6v-29.6h6c1.5 0 6.4 0 8.6-0.4zm-33-45.5v-23.6h13.9c10.1 0 14.6 4 14.6 11.4 0 7.8-4.5 12.2-14.6 12.2z"/><path class="a" d="m655.7-147.2h5v-31.8h-5zm36.6-32.4v23.8l-16.5-23.8h-4.9v32.4h4.9v-24.3l16.5 24.3h5v-32.4zm35.8 0v23.8l-16-23.8h-5v32.4h5v-24.3l16 24.3h5.4v-32.4zm46.4 15.9c0-9.6-7.8-16.4-16.7-16.4-9 0-16.3 6.8-16.3 16.4 0 9.4 7.3 16.8 16.3 16.8 8.9 0 16.7-7.4 16.7-16.8zm-27.6 0c0-7.3 4.6-11.6 10.9-11.6 6.2 0 10.8 4.3 10.8 11.6 0 7-4.6 11.7-10.8 11.7-6.3 0-10.9-4.7-10.9-11.7zm47.8 10.5l-9.3-26.4h-5.9l12.1 32.4h6.2l12.1-32.4h-5.8zm44.3 5.4h5.5l-11.7-32.3h-5.8l-11.7 32.3h5.9l2.3-6.6h13.2zm-3.9-10.9h-10.5l5.5-14.8zm15.1-16.8h8.6v27.7h5v-27.7h8.6v-4.6h-22.2zm30.8 28h5.5v-32.4h-5.5zm35.8-32.2v24.1l-15.5-24.1h-5.5v32.2h5.5v-23.7l15.5 23.7h5.1v-32.2zm30-0.4c-9 0-16.4 6.6-16.4 16.7 0 9.4 7.4 15.9 16.4 15.9 8.9 0 15.2-6.1 15.9-13.5v-4h-17.9v4.4h12.5c-0.7 5-4.7 8.6-10.5 8.6-6.7 0-10.9-4.4-10.9-11.4 0-7 4.2-12 10.9-12 3.8 0 6.9 1.5 8.5 5.5h6.7c-2.8-6.6-8.3-10.2-15.2-10.2zm36.9 4.7h8.6v27.9h5.5v-27.9h8v-4.3h-22.1zm51.1 28h5.4v-32.3h-5.4v14.1h-15.6v-14.1h-5.1v32.3h5.1v-14h15.6zm32.6-31.9h-17.5v31.9h17.5v-4.2h-12.5v-10.2h10.9v-4.3h-10.9v-9.3h12.5zm24.1 32.4h5.2v-14.5h10.9v-4.3h-10.9v-9.3h14v-4h-19.2zm26.5-11.5c0 8 5.8 11.5 12.5 11.5 6.6 0 12.8-3.5 12.8-11.5v-20.7h-5.9v20.7c0 5-2.7 7.3-6.9 7.3-4.7 0-7.4-2.3-7.4-7.3v-20.7h-5.1zm33.2-16.4h8.6v28h4.9v-28h9v-4.4h-22.5zm30.3 16.1c0 8.5 5.8 12.4 12.5 12.4 7 0 12.8-3.9 12.8-12.4v-20.3h-5.5v20.3c0 5.5-2.6 7.7-7.3 7.7-4.3 0-7.5-2.2-7.5-7.7v-20.3h-5zm34.7-19.8v31.6h5.4v-12.5h3.9l7.4 12.5h6.3l-8.2-13.3c5.3-1.2 7.3-5.1 7.3-8.9 0-5.2-3.5-9.4-11.2-9.4zm16.7 9.4c0 3.1-1.6 5.4-5.9 5.4h-5.5v-10.6h5.5c4.3 0 5.9 2 5.9 5.2zm33.4-9.4h-17.5v31.6h17.5v-4.4h-12.5v-9.7h11v-4.3h-11v-9.3h12.5z"/><path class="b" d="m750.9-307.2h62.8v19.5h-62.9z"/><path class="b" d="m750.9-272.4h44v18.9h-44.1z"/><path class="b" d="m750.9-238.1h62.8v18.9h-62.9z"/></svg>
